<?xml version="1.0" encoding="utf-8"?>
<!-- Generator: Adobe Illustrator 24.1.1, SVG Export Plug-In . SVG Version: 6.00 Build 0)  -->
<svg version="1.1" id="Layer_1" xmlns="http://www.w3.org/2000/svg" xmlns:xlink="http://www.w3.org/1999/xlink" x="0px" y="0px"
	 viewBox="0 0 512 512" style="enable-background:new 0 0 512 512;" xml:space="preserve">
<style type="text/css">
	.st0{fill:#25B7D3;}
	.st1{fill:#3E3E3F;}
	.st2{fill:#FA5655;}
	.st3{fill:#F99134;}
	.st4{fill:#FACB1B;}
	.st5{fill:#F0F1F1;}
	.st6{fill:#FFFFFF;}
	.st7{fill:#818284;}
</style>
<g id="XMLID_1_">
	<circle id="XMLID_3_" class="st0" cx="256" cy="256" r="256"/>
	<path id="XMLID_4_" class="st1" d="M302.5,395.4c0,5.5-3.9,9.5-9.5,9.5h-74.8c-5.5,0-9.5-3.9-9.5-9.5v-130c0-5.5,3.9-9.5,9.5-9.5
		H293c5.5,0,9.5,3.9,9.5,9.5V395.4z"/>
	<path id="XMLID_5_" class="st1" d="M404.9,395.4c0,5.5-3.9,9.5-9.5,9.5h-74.8c-5.5,0-9.5-3.9-9.5-9.5v-130c0-5.5,3.9-9.5,9.5-9.5
		h74.8c5.5,0,9.5,3.9,9.5,9.5V395.4z"/>
	<path id="XMLID_6_" class="st1" d="M200.1,395.4c0,5.5-3.9,9.5-9.5,9.5h-74.8c-5.5,0-9.5-3.9-9.5-9.5v-130c0-5.5,3.9-9.5,9.5-9.5
		h74.8c5.5,0,9.5,3.9,9.5,9.5V395.4z"/>
	<circle id="XMLID_7_" class="st2" cx="179.6" cy="277.3" r="7.1"/>
	<circle id="XMLID_8_" class="st3" cx="156" cy="277.3" r="7.1"/>
	<circle id="XMLID_9_" class="st4" cx="132.3" cy="277.3" r="7.1"/>
	<path id="XMLID_10_" class="st5" d="M353.7,193.8c0-18.1-11-33.9-27.6-41c-12.6-31.5-33.1-44.1-58.3-44.1
		c-23.6,0-44.1,13.4-54.4,33.1c-15.8-7.1-33.9,4.7-34.7,22.1c-15,5.5-25.2,19.7-25.2,36.2c0,20.5,16.5,37.8,37.8,37.8h125.2
		C315.9,237.1,353.7,230,353.7,193.8z"/>
	<path id="XMLID_11_" class="st6" d="M267.8,108.7c-23.6,0-44.1,13.4-54.4,33.1c-15.8-7.1-33.9,4.7-34.7,22.1
		c-15,5.5-25.2,19.7-25.2,36.2c0,19.7,15,35.4,34.7,37L304,121.3C293.8,112.6,281.2,108.7,267.8,108.7z"/>
	<circle id="XMLID_12_" class="st2" cx="282" cy="277.3" r="7.1"/>
	<circle id="XMLID_13_" class="st3" cx="258.4" cy="277.3" r="7.1"/>
	<circle id="XMLID_14_" class="st4" cx="234.7" cy="277.3" r="7.1"/>
	<circle id="XMLID_15_" class="st2" cx="384.4" cy="277.3" r="7.1"/>
	<circle id="XMLID_16_" class="st3" cx="360.8" cy="277.3" r="7.1"/>
	<circle id="XMLID_17_" class="st4" cx="337.1" cy="277.3" r="7.1"/>
	<rect id="XMLID_18_" x="107.1" y="372.6" class="st7" width="92.9" height="9.5"/>
	<rect id="XMLID_19_" x="107.1" y="348.9" class="st7" width="92.9" height="9.5"/>
	<rect id="XMLID_20_" x="107.1" y="326.1" class="st7" width="92.9" height="9.5"/>
	<rect id="XMLID_21_" x="107.1" y="302.5" class="st7" width="92.9" height="9.5"/>
	<rect id="XMLID_22_" x="209.5" y="372.6" class="st7" width="92.9" height="9.5"/>
	<rect id="XMLID_23_" x="209.5" y="348.9" class="st7" width="92.9" height="9.5"/>
	<rect id="XMLID_24_" x="209.5" y="326.1" class="st7" width="92.9" height="9.5"/>
	<rect id="XMLID_25_" x="209.5" y="302.5" class="st7" width="92.9" height="9.5"/>
	<rect id="XMLID_26_" x="311.9" y="372.6" class="st7" width="92.9" height="9.5"/>
	<rect id="XMLID_27_" x="311.9" y="348.9" class="st7" width="92.9" height="9.5"/>
	<rect id="XMLID_28_" x="311.9" y="326.1" class="st7" width="92.9" height="9.5"/>
	<rect id="XMLID_29_" x="311.9" y="302.5" class="st7" width="92.9" height="9.5"/>
</g>
</svg>
